<svg width="31" height="30" viewBox="0 0 31 30" fill="none" xmlns="http://www.w3.org/2000/svg">
<path d="M28 14.511V5.18167M28 5.18167C28 7.49115 21.9558 9.36334 14.5 9.36334C7.04416 9.36334 1 7.49115 1 5.18167M28 5.18167C28 2.8722 21.9558 1 14.5 1C7.04416 1 1 2.8722 1 5.18167M1 5.18167V24.6961C0.999728 25.2563 1.36278 25.8107 2.0676 26.3266C2.77242 26.8424 3.80464 27.3092 5.10299 27.6991C6.40135 28.089 7.93936 28.3941 9.62575 28.5964C11.3121 28.7986 13.1125 28.8938 14.92 28.8764M29.5 28.8778L26.6875 26.2643M1 14.9389C1.00035 16.0235 2.36115 17.0656 4.79517 17.8453C7.22919 18.625 10.546 19.0813 14.0455 19.1178M28 23.3023C28 25.6117 25.9853 27.4839 23.5 27.4839C21.0147 27.4839 19 25.6117 19 23.3023C19 20.9928 21.0147 19.1206 23.5 19.1206C25.9853 19.1206 28 20.9928 28 23.3023Z" stroke="#79B6ED" stroke-width="2" stroke-linecap="round"/>
</svg>
